<svg width="48" height="48" viewBox="0 0 48 48" fill="none" xmlns="http://www.w3.org/2000/svg">
<path d="M13.8449 0.5H34.1551C38.9692 0.5 40.715 0.990814 42.4749 1.91237C44.235 2.83408 45.6163 4.18653 46.5576 5.90994C47.4987 7.63321 48 9.34264 48 14.0566V33.9434C48 38.6574 47.4987 40.3666 46.5576 42.0901C45.6163 43.8133 44.235 45.1659 42.4749 46.0875C40.715 47.0092 38.9692 47.5 34.1551 47.5H13.8449C9.03066 47.5 7.285 47.0092 5.52492 46.0875C3.76497 45.1659 2.38375 43.8133 1.44243 42.0901C0.501258 40.3666 0 38.6574 0 33.9434V14.0566C0 9.34264 0.501258 7.63321 1.44243 5.90994C2.38375 4.18653 3.76497 2.83408 5.52492 1.91237C7.285 0.990814 9.03066 0.5 13.8449 0.5Z" fill="#FFD100"/>
<path d="M15.7626 27.6556C17.3142 29.4866 20.1987 30.6554 23.3221 30.8891L22.2478 32.7201C19.3634 32.3889 16.0411 31.0644 14.1909 28.7268C12.4801 31.0644 9.2174 32.4864 5.13928 32.7786L5.77576 30.8113C8.54099 30.7722 11.4059 29.3697 12.6392 27.6556H5.39778V25.9608H13.1166V24.3635H5.8355V22.6884H13.1166V21.3833H5.8355V19.7079H13.1166V18.3445H5.39778V16.6498H8.52117L8.34223 15.2083H10.5106C10.5902 15.6757 10.6498 16.1628 10.7293 16.6498H17.6722C17.7719 16.1628 17.8315 15.6757 17.8714 15.2083H20.0794C20.0395 15.6757 19.9802 16.1628 19.9003 16.6498H23.0239V18.3445H15.2452V19.7079H22.5265V21.3833H15.2452V22.6884H22.5265V24.3635H15.2452V25.9608H23.0239V27.6556H15.7626Z" fill="black"/>
<path d="M28.6883 21.3442V19.7078H35.6312V18.2275H37.6801V19.7078H39.6296V21.3442H37.6801V25.9607C37.6801 27.5386 37.4812 28.7072 37.0436 29.915H34.8156C35.4919 28.5125 35.6312 27.519 35.6312 26.0192V21.3442H33.7611C33.4828 24.3634 32.2888 28.1034 31.0356 29.915H28.7679C29.9815 28.2398 31.374 24.9674 31.712 21.3442H28.6883ZM27.6339 30.8544H40.5448V17.2954H27.6339V30.8544ZM42.6337 16.6331V32.5881H26.6591C25.9428 32.5881 25.5451 32.1984 25.5451 31.5167V15.5617H41.5C42.216 15.5617 42.6337 15.9512 42.6337 16.6331Z" fill="black"/>
</svg>
